<svg xmlns="http://www.w3.org/2000/svg" xmlns:xlink="http://www.w3.org/1999/xlink" xmlns:inkscape="http://www.inkscape.org/namespaces/inkscape" version="1.1" width="841.89" height="595.276" viewBox="0 0 841.89 595.276">
<defs>
<clipPath id="clip_1">
<path transform="matrix(1,0,0,-1,0,595.276)" d="M0 595.276H841.89V0H0Z"/>
</clipPath>
</defs>
<g inkscape:groupmode="layer" inkscape:label="Camada 1">
<g clip-path="url(#clip_1)">
<path transform="matrix(1,0,0,-1,593.9951,190.15039)" d="M0 0C-.234 3.353-2 7.857-5.923 8.025-20.581 8.652-35.236 8.084-49.41 3.642-53.963 2.216-56.264 3.583-56.693 8.427-57 11.89-57.177 15.4-57.904 18.784-60.949 32.947-64.246 47.049-69.534 60.598-71.152 64.742-72.757 68.909-74.01 73.171-74.391 74.464-75.399 75.627-76.639 76.451-76.778 76.441-76.918 76.431-77.065 76.431-77.425 76.431-77.761 76.466-78.081 76.525-79.264 76.243-80.45 75.962-81.646 75.744-82.932 75.286-84.204 74.805-85.519 74.432-88.274 72.588-91.486 71.867-94.362 70.57-108.155 64.351-121.212 56.893-133.632 48.358-146.751 39.342-159.255 29.51-170.186 17.833-171.775 16.135-173.691 15.624-175.406 17.42-186.606 29.153-199.13 39.29-212.512 48.396-218.137 52.224-223.644 56.297-229.58 59.579-237.989 64.229-246.563 68.691-255.429 72.357-259.418 74.007-262.939 77.662-267.618 77.426-267.842 77.267-268.069 77.143-268.292 77.082-268.42 76.958-268.545 76.826-268.676 76.711-268.863 76.548-269.059 76.397-269.252 76.241-269.382 76.071-269.508 75.898-269.632 75.724-269.646 75.703-269.661 75.682-269.676 75.66-269.718 75.599-269.76 75.537-269.802 75.475-269.936 75.276-270.07 75.077-270.206 74.878-270.583 74.328-270.961 73.779-271.376 73.256-271.415 73.208-271.457 73.165-271.496 73.118-271.533 72.989-271.576 72.863-271.634 72.742-276.173 63.229-279.108 53.141-282.205 43.116-285.878 31.226-288.073 19.002-290.162 6.762-290.721 3.484-292.184 2.46-295.271 3.354-309.5 7.479-324.035 8.936-338.804 8.176-342.709 7.975-344.563 5.877-344.833 2.01-345.212-3.448-345.861-8.883-346.25-14.345-347.149-26.936-346.748-39.49-345.505-52.026-344.462-62.538-341.908-72.721-338.91-82.841-336.005-92.649-331.923-101.949-327.03-110.827-319.97-123.638-310.92-134.941-299.812-144.62-290.929-152.36-281.155-158.617-270.646-163.796-264.639-166.757-258.382-169.119-251.957-171.039-250.312-171.53-248.546-171.957-247.615-173.682-247.314-174.202-247.013-174.723-246.712-175.243-245.433-169.265-244.554-163.19-242.479-157.398-242.411-157.21-242.617-156.937-242.736-156.707-246.094-156.212-248.924-154.315-252.043-153.245-260.341-150.397-268.09-146.527-275.519-141.889-295.157-129.626-309.429-112.766-318.667-91.627-324.344-78.638-327.508-64.967-329.514-50.951-331.292-38.536-331.464-26.116-330.563-13.67-330.24-9.196-329.271-8.729-324.847-8.558-315.472-8.196-306.661-11.361-297.61-12.974-293.958-13.625-292.789-15.668-292.796-19.514-292.813-27.74-292.581-35.946-292.05-44.16-291.42-53.906-289.502-63.438-287.119-72.823-284.832-81.836-281.808-90.677-278.214-99.305-273.075-111.645-266.844-123.353-259.468-134.516-254.452-142.106-248-148.579-243.191-156.297-241.328-156.784-241.306-155.083-240.769-154.146-239.092-151.224-238.057-148.014-236.851-144.883-236.068-142.85-234.347-141.062-235.159-138.596-235.967-137.483-236.794-136.394-237.686-135.352-244.088-127.872-249.619-119.793-254.612-111.31-257.639-106.168-260.182-100.801-262.606-95.379-265.696-88.471-268.493-81.407-270.34-74.07-272.548-65.304-273.976-56.381-275.414-47.435-278.742-26.716-277.363-6.209-273.836 14.186-271.53 27.519-267.419 40.496-263.567 53.485-262.533 56.972-260.674 57.785-257.427 56.171-250.983 52.97-244.657 49.557-238.393 46.004-228.758 40.541-219.511 34.502-210.7 27.838-202.366 21.535-194.445 14.709-186.989 7.359-183.58 3.998-183.55 3.652-186.56-.218-189.157-3.556-191.878-6.806-194.274-10.296-199.468-17.864-204.277-25.664-208.572-33.784-210.702-37.812-211.405-37.8-214.85-34.689-218.641-31.266-222.775-28.275-227.049-25.479-237.368-18.728-248.279-13.09-259.575-8.169-262-7.112-264.575-8.208-264.51-10.738-264.435-13.622-265.114-16.409-265.026-19.269-264.947-21.862-264.03-23.7-261.602-24.969-255.669-28.071-249.709-31.13-244.006-34.661-233.967-40.876-223.938-47.094-215.506-55.504-212.522-54.94-212.27-52.226-211.761-50.136-210.381-44.466-206.488-41.02-201.925-38.077-200.549-37.19-199.358-36.242-198.352-34.911-195.162-30.692-191.917-26.518-187.228-24.513-186.983-24.194-186.701-23.892-186.435-23.625-186.063-23.254-185.667-22.936-185.244-22.636-185.22-22.615-185.196-22.595-185.172-22.575-185.531-22.817-185.268-22.635-185.098-22.511-184.89-22.331-184.687-22.145-184.485-21.958-184.014-21.52-183.534-21.096-183.022-20.704-182.931-20.55-182.83-20.402-182.724-20.255-182.348-19.736-181.881-19.276-181.404-18.851-181.368-18.818-181.324-18.782-181.285-18.747-181.199-18.625-181.105-18.502-181-18.38-175.402-11.866-170.672-4.64-164.776 1.622-154.072 12.99-142.228 23.115-129.496 32.089-116.692 41.114-103.246 49.17-89.1 55.988-85.375 57.783-84.496 57.645-82.916 53.699-80.844 48.524-79.618 43.055-77.928 37.741-75.517 30.161-74.185 22.295-72.359 14.56-71.467 10.774-71.084 6.951-70.557 3.144-70.007-.827-71.026-2.148-74.745-3.666-85.108-7.895-95.363-12.338-105.154-17.818-110.702-20.924-115.925-24.521-121.24-27.975-125.412-30.685-125.861-33.487-123.3-37.764-122.65-38.848-122.311-40.021-121.948-41.22-120.827-44.934-118.183-45.892-115.13-43.503-110.311-39.732-105.108-36.602-99.827-33.549-90.055-27.9-80.106-22.537-69.509-18.686-59.86-15.179-49.99-12.307-39.771-10.615-33.278-9.54-26.901-7.745-20.258-7.785-16.295-7.808-14.573-9.174-14.5-13.062-14.402-18.302-13.236-23.479-13.619-28.722-14.127-35.668-15.196-42.602-15.571-49.513-16.077-58.84-18.806-67.623-20.691-76.591-21.376-79.849-22.534-83.302-23.971-86.398-26.892-92.695-29.775-99.011-33.342-105.025-38.27-113.336-43.925-121.046-50.923-127.623-59.351-135.545-68.423-142.591-79.044-147.63-86.112-150.982-93.223-154.119-100.559-156.794-101.667-157.198-102.791-157.661-103.541-156.444-104.322-155.179-103.191-154.454-102.448-153.619-97.979-148.596-93.59-143.488-89.827-137.915-83.567-128.645-77.933-119.036-73.033-108.927-67.365-97.231-62.934-85.18-59.774-72.617-56.701-60.395-54.94-47.949-54.278-35.399-53.812-26.541-56.004-25.358-64.403-28.866-67.364-30.103-69.661-32.015-69.608-35.459-69.543-39.715-70.356-43.881-70.594-48.105-70.801-51.785-71.058-55.519-72.159-59.152-74.025-65.307-75.208-71.646-76.894-77.864-78.99-85.599-82.421-92.734-85.526-99.976-87.843-105.381-90.764-110.643-94.042-115.659-98.398-122.325-102.739-128.965-108.088-134.898-113.828-141.267-118.762-148.295-124.289-154.845-123.135-157.753-120.063-157.531-117.885-158.75-114.939-160.398-112.39-162.263-112.441-166.082-112.501-170.354-114.921-173.929-118.652-175.419-119.706-175.84-121.294-175.657-121.278-177.474-119.679-177.313-118.04-177.324-116.486-176.966-105.879-174.518-95.405-171.767-85.169-167.857-70.249-162.161-56.973-154.028-45.049-143.575-35.347-135.071-27.499-124.951-20.74-114.036-16.12-106.577-12.388-98.618-9.642-90.25-7.96-85.128-6.481-79.94-4.784-74.824-2.737-68.654-.938-62.075-.243-55.968 1.866-37.428 1.302-18.653 0 0" fill="#0bc1ec"/>
<path transform="matrix(1,0,0,-1,434.5391,218.62549)" d="M0 0C1.475 3.019-1.418 4.527-2.711 5.99-6.162 9.896-6.422 12.957-2.043 16.122-.949 16.912-.084 18.039 .817 19.071 3.329 21.948 5.127 21.376 7.236 18.35 18.238 2.566 26.169-14.781 33.059-32.605 36.591-41.744 39.051-51.28 41.111-60.89 41.956-64.834 39.305-67.497 37.703-70.473 32.146-80.8 25.494-90.384 17.5-99.004 17.524-94.745 18.764-90.658 20.195-86.789 21.853-82.313 21.454-78.124 19.686-74.121 18.352-71.101 18.029-68.203 18.393-65.075 20.72-66.154 19.729-67.761 19.368-69.103 20.061-68.454 20.129-67.002 21.051-66.118 25.174-62.162 24.884-57.522 23.062-52.725 21.202-47.831 21.013-42.521 18.89-36.74 19.396-38.444 19.164-38.954 18.265-39.039 19.125-28.888 16.913-19.049 15.324-9.137 14.906-6.53 13.083-5.789 11.136-4.933 7.419-3.3 3.711-1.646 0 0" fill="#10c2ec"/>
<path transform="matrix(1,0,0,-1,214.8022,414.5869)" d="M0 0C-5.021 0-9.474 .181-13.903-.062-16.876-.227-16.654 1.451-16.668 3.416-16.683 5.405-16.844 6.978-13.904 6.892-6.935 6.687 .048 6.707 7.019 6.884 9.766 6.953 9.996 5.743 9.851 3.52 9.152-7.193-1.682-15.322-14.091-14.343-23.554-13.597-32.038-5.655-33.057 3.409-34.211 13.685-28.177 23.241-18.749 26.068-7.92 29.315 2.215 25.491 6.849 16.383 7.221 15.65 7.402 14.821 7.798 13.671 3.084 13.727-1.34 11.963-4.659 17.102-6.951 20.651-11.218 20.878-15.177 19.909-20.915 18.504-24.873 12.867-24.892 6.415-24.911-.127-21.174-5.354-15.222-7.114-9.349-8.852-3.932-6.506 0 0" fill="#0075a0"/>
<path transform="matrix(1,0,0,-1,455.3486,400.97663)" d="M0 0C6.362 4.25 11.358 4.096 17.64-.853 19.091-1.996 19.641-1.502 20.608-.494 24.356 3.41 28.899 3.739 33.687 2.003 38.385 .299 40.293-3.657 40.557-8.229 40.895-14.071 40.709-19.944 40.71-25.805 40.711-29.43 37.905-27.606 36.305-27.925 34.554-28.273 33.232-27.955 33.312-25.497 33.467-20.64 33.419-15.771 33.267-10.911 33.152-7.268 31.999-4.224 27.629-3.919 23.147-3.607 21.05-5.996 20.383-10.19 19.593-15.158 19.941-20.149 20.036-25.119 20.089-27.92 18.789-28.112 16.651-28.004 14.683-27.903 12.772-28.469 12.83-25.173 12.924-19.833 13.351-14.463 12.367-9.13 11.756-5.816 9.947-4.027 6.588-3.926 3.183-3.823 .871-5.244 .088-8.754-1.096-14.059-.515-19.437-.416-24.765-.357-27.987-1.89-27.962-4.244-28.04-6.842-28.127-8.023-27.661-7.93-24.625-7.693-17.026-7.896-9.414-7.811-1.809-7.796-.506-8.754 1.776-6.55 1.836-4.334 1.895-1.281 3.649 0 0" fill="#0075a0"/>
<path transform="matrix(1,0,0,-1,529.4297,402.9287)" d="M0 0C2.357 2.312 4.687 4.528 8.175 4.832 15.922 5.505 21.226 1.004 21.476-6.793 21.656-12.394 21.43-18.006 21.59-23.608 21.684-26.886 19.419-25.916 17.769-25.995 16.11-26.073 14.261-26.549 14.31-23.627 14.396-18.405 14.254-13.174 14.002-7.955 13.835-4.469 12.261-2.116 8.311-1.93 4.121-1.732 1.838-3.955 1.472-7.726 .979-12.792 .878-17.925 1.034-23.016 1.128-26.079-.402-26.12-2.612-26.05-4.639-25.985-6.537-26.401-6.352-23.153-6.096-18.686-6.205-14.184-6.398-9.707-6.637-4.19-8.665-1.905-12.865-1.96-16.923-2.013-19.343-4.623-19.596-9.749-19.815-14.224-19.845-18.725-19.615-23.197-19.47-26.036-20.897-26.18-23.002-26.041-24.905-25.915-26.956-26.627-26.867-23.266-26.655-15.298-26.827-7.321-26.77 .651-26.761 1.763-27.458 3.593-25.755 3.777-23.799 3.989-21.495 4.855-19.834 3.158-19.265 2.578-19.458 1.509-18.193 2.37-11.516 6.914-5.56 5.254 0 0" fill="#0075a0"/>
<path transform="matrix(1,0,0,-1,433.0937,426.22853)" d="M0 0C-11.349-6.458-20.51-1.252-20.629 11.326-20.669 15.563-20.42 19.814-20.714 24.03-20.938 27.251-19.299 27.3-16.905 27.324-14.454 27.349-12.91 27.194-13.107 24.012-13.376 19.669-13.244 15.291-13.076 10.936-12.926 7.062-11.469 4.185-6.923 4.068-2.362 3.952-.261 6.567 .057 10.641 .395 14.977 .41 19.359 .229 23.708 .113 26.445 .833 27.502 3.716 27.333 6.16 27.189 7.917 27.349 7.789 23.87 7.505 16.155 7.73 8.423 7.67 .698 7.658-.712 8.479-3.025 5.693-2.653 3.641-2.379 .385-4.435 0 0" fill="#0076a1"/>
<path transform="matrix(1,0,0,-1,600.8447,401.29493)" d="M0 0C4.816 3.859 9.605 4.217 14.43 1.794 18.928-.465 20.36-4.647 20.355-9.446 20.352-14.556 20.177-19.676 20.441-24.772 20.609-27.993 18.755-27.595 16.705-27.698 14.348-27.818 13.065-27.474 13.171-24.563 13.348-19.718 13.226-14.842 12.889-10.003 12.633-6.33 11.016-3.575 6.661-3.572 2.276-3.569 .26-6.147-.039-10.042-.409-14.877-.558-19.761-.328-24.601-.166-28.04-2.148-27.554-4.288-27.701-6.788-27.874-7.796-27.221-7.728-24.46-7.539-16.862-7.723-9.256-7.607-1.655-7.587-.298-8.726 2.171-6.181 2.176-4.076 2.18-1.027 4.089 0 0" fill="#0075a0"/>
<path transform="matrix(1,0,0,-1,302.769,399.4355)" d="M0 0C5.23 1.387 8.544 .539 9.927-5.118 11.123-10.01 13.312-14.658 15.387-20.299 17.776-14.492 20.287-9.671 21.725-4.549 23.308 1.09 26.812 1.101 31.606 .057 26.108-12.601 20.792-25.146 15.183-37.56 13.57-41.126 9.995-38.083 7.647-39.375 7.381-38.775 7.146-38.469 7.215-38.369 11.902-31.517 10.651-24.889 7.151-17.895 4.293-12.182 2.358-6.007 0 0" fill="#0075a0"/>
<path transform="matrix(1,0,0,-1,401.4219,401.2588)" d="M0 0C1.419 .949 2.272 1.794 3.293 2.139 4.763 2.636 7.084 4.435 7.689 2.261 8.236 .293 9.857-3.389 5.314-4.083 1.975-4.594 .363-6.725 .272-10.028 .139-14.884-.197-19.752 .032-24.593 .192-27.989-1.717-27.595-3.899-27.745-6.448-27.92-7.361-27.189-7.297-24.478-7.115-16.753-7.282-9.02-7.182-1.291-7.166-.05-8.202 2.228-5.755 2.17-3.739 2.123-.822 3.922 0 0" fill="#0076a1"/>
<path transform="matrix(1,0,0,-1,452.7559,461.55659)" d="M0 0C2.671 .903 5.551 1.612 6.358 .092 7.39-1.85 7.042-4.75 6.672-7.142 6.344-9.272 4.192-9.168 2.427-9.22-4.961-9.435-8.875-5.8-8.528 .979-8.197 7.441-3.369 11.183 3.563 10.33 4.635 10.198 6.15 10.307 5.96 8.712 5.724 6.735 4.245 8.005 3.336 8.085-2.325 8.583-5.678 6.068-5.997 1-6.29-3.633-3.554-6.832 .869-6.921 2.407-6.951 4.257-7.379 4.391-4.818 4.503-2.667 4.562-.728 1.502-1.03 1.242-1.056 .94-.663 0 0" fill="#008698"/>
<path transform="matrix(1,0,0,-1,297.6675,169.55371)" d="M0 0C-.46-3.258-1.938-5.512-5.437-5.565-8.733-5.615-10.669-3.579-10.801-.524-10.943 2.776-8.958 4.843-5.522 4.949-2.187 5.052-.688 2.92 0 0" fill="#008292"/>
<path transform="matrix(1,0,0,-1,556.1865,170.8789)" d="M0 0C-.446-3.248-2.123-5.269-5.583-5.138-8.83-5.015-10.629-3.078-10.605 .121-10.581 3.322-8.695 5.26-5.508 5.35-2.071 5.447-.386 3.357 0 0" fill="#008191"/>
<path transform="matrix(1,0,0,-1,425.9365,142.89551)" d="M0 0C-.554-3.17-2.14-5.407-5.599-5.224-8.743-5.058-10.681-3.094-10.621 .103-10.558 3.461-8.565 5.366-5.16 5.274-1.898 5.186-.379 3.134 0 0" fill="#008191"/>
<path transform="matrix(1,0,0,-1,300.7661,451.1328)" d="M0 0C5.552-.616 4.334-6.182 7.239-8.138 10.084-6.075 9.226-.728 14.615 .074 13.138-2.582 12.199-4.769 10.824-6.634 8.354-9.985 8.056-13.7 8.304-17.62 8.353-18.397 8.605-19.477 7.261-19.59 6.325-19.668 5.75-19.147 5.904-18.28 7.129-11.434 3.077-6.198 0 0" fill="#008a9b"/>
<path transform="matrix(1,0,0,-1,278.7461,461.7988)" d="M0 0C-1.611 .172-2.474 1.151-2.571 2.676-2.68 4.371-1.798 5.786-.126 5.841 1.573 5.896 2.487 4.509 2.432 2.809 2.384 1.314 1.665 .213 0 0" fill="#008b9c"/>
<path transform="matrix(1,0,0,-1,559.9941,457.7344)" d="M0 0C-.025-1.771-.798-3.117-2.555-3.074-4.104-3.037-4.843-1.761-4.785-.173-4.729 1.365-4.107 2.592-2.449 2.642-.771 2.693-.113 1.498 0 0" fill="#00899a"/>
<path transform="matrix(1,0,0,-1,378.061,275.0513)" d="M0 0C.033-.067 .064-.134 .095-.203 .011-.004-.073 .195-.157 .395-.004 .025 .092-.363 .215-.743 .395-1.297 .625-1.84 .88-2.363 1.301-3.222 1.891-4.012 2.534-4.715 2.955-5.175 3.689-5.447 4.301-5.447 4.915-5.447 5.647-5.174 6.069-4.715 6.506-4.238 6.831-3.613 6.801-2.947 6.771-2.267 6.533-1.686 6.069-1.179 5.925-1.021 5.787-.858 5.655-.69 5.785-.859 5.915-1.028 6.045-1.196 5.624-.649 5.276-.054 5.007 .582 5.091 .383 5.175 .184 5.259-.015 5.125 .311 5.017 .643 4.917 .98 4.759 1.511 4.564 2.027 4.317 2.524 4.048 3.063 3.389 3.517 2.823 3.672 2.225 3.837 1.428 3.763 .896 3.42 .363 3.077-.107 2.564-.252 1.926-.282 1.705-.312 1.483-.342 1.262-.34 .811-.227 .39 0 0" fill="#32c2e6"/>
<path transform="matrix(1,0,0,-1,377.4502,274.4443)" d="M0 0C.169-.641 .424-1.25 .692-1.855 .879-2.275 1.101-2.678 1.354-3.062 1.511-3.354 1.726-3.587 1.998-3.764 2.239-3.984 2.523-4.134 2.848-4.211 3.18-4.315 3.513-4.33 3.845-4.256 4.178-4.241 4.488-4.142 4.774-3.959 4.943-3.829 5.112-3.698 5.28-3.568 5.59-3.256 5.805-2.889 5.923-2.465 5.953-2.244 5.983-2.022 6.013-1.8 6.011-1.349 5.897-.929 5.671-.539 5.39-.112 5.149 .338 4.949 .809 5.033 .61 5.117 .411 5.201 .212 5.049 .575 4.922 .948 4.822 1.329 4.744 1.654 4.595 1.938 4.374 2.179 4.198 2.452 3.964 2.666 3.673 2.823 3.386 3.006 3.076 3.105 2.743 3.12 2.411 3.194 2.079 3.18 1.746 3.075 1.547 2.991 1.348 2.907 1.149 2.823 .773 2.601 .475 2.302 .252 1.926 .168 1.728 .084 1.528 0 1.329-.119 .886-.119 .443 0 0" fill="#32c2e6"/>
<path transform="matrix(1,0,0,-1,384.6318,276.9878)" d="M0 0C-1.573 .123-2.354 .819-1.676 2.623-1.805 3.001-1.938 3.377-2.071 3.754-2.162 3.842-2.238 3.944-2.34 4.02-2.454 4.106-2.403 4.293-2.321 4.473-2.964 6.298-3.601 8.124-4.062 10.013-4.407 11.426-4.677 12.857-4.957 14.285-5.539 10.961-6.095 7.635-6.478 4.289-6.709 2.268-5.177 .333-3.053-.083-1.942-.302-.829-.482 .287-.622 .187-.417 .096-.208 0 0" fill="#32c2e6"/>
<path transform="matrix(1,0,0,-1,384.6318,276.9878)" stroke-width=".25" stroke-linecap="butt" stroke-miterlimit="10" stroke-linejoin="miter" fill="none" stroke="#32c2e6" d="M0 0C-1.573 .123-2.354 .819-1.676 2.623-1.805 3.001-1.938 3.377-2.071 3.754-2.162 3.842-2.238 3.944-2.34 4.02-2.454 4.106-2.403 4.293-2.321 4.473-2.964 6.298-3.601 8.124-4.062 10.013-4.407 11.426-4.677 12.857-4.957 14.285-5.539 10.961-6.095 7.635-6.478 4.289-6.709 2.268-5.177 .333-3.053-.083-1.942-.302-.829-.482 .287-.622 .187-.417 .096-.208 0 0Z"/>
<path transform="matrix(1,0,0,-1,438.9316,240.59369)" d="M0 0C-4.691 7.519-11.467 7.673-18.601 6.367-21.423 5.851-23.733 3.993-27.161 4.915-29.739 5.609-32.423 3.261-33.143 .312-33.832-2.516-33.139-4.853-29.534-5.33-28.239-5.501-28.578-6.662-28.913-7.593-28.917-7.749-28.919-7.904-28.935-8.059-28.936-8.074-28.933-8.089-28.934-8.104-28.936-8.116-28.941-8.125-28.944-8.137-28.951-8.196-28.953-8.255-28.964-8.314-28.967-8.33-28.974-8.344-28.978-8.359-28.914-8.963-28.803-9.564-28.844-10.174-28.846-10.185-28.851-10.194-28.853-10.204-28.851-10.226-28.841-10.238-28.844-10.265-28.844-10.967-28.841-11.674-28.694-12.364-28.737-12.597-28.826-12.811-28.962-13.006-29.059-13.147-29.156-13.289-29.253-13.43-29.629-13.95-30.095-14.409-30.572-14.835-30.784-15.029-31.01-15.204-31.25-15.36-31.428-15.495-31.619-15.607-31.824-15.697-31.947-15.782-32.069-15.8-32.191-15.749-32.3-15.745-32.346-15.678-32.329-15.548-32.476-14.858-32.479-14.15-32.479-13.448-32.476-13.433-32.469-13.419-32.466-13.404-32.468-13.386-32.48-13.38-32.479-13.358-32.423-12.532-32.655-11.722-32.659-10.898-32.644-10.815-32.616-10.738-32.589-10.661-32.593-10.61-32.599-10.559-32.599-10.508-32.557-10.276-32.467-10.062-32.332-9.866-32.234-9.725-32.137-9.583-32.04-9.442-31.914-9.276-31.766-9.129-31.628-8.973-35.134-5.987-38.949-2.959-42.09 .658-45.34 4.4-40.626 7.274-39.499 10.537-39.242 11.278-38.345 11.799-37.741 12.423-34.319 15.948-28.741 16.002-25.583 20.038-24.839 20.987-23.478 20.335-22.41 19.961-15.924 17.691-9.71 14.852-4.084 10.875 .355 7.737 .814 6.458 0 0M-23.38-82.041C-30.343-76.675-35.427-69.605-40.754-62.771-43.114-59.744-45.219-56.52-47.47-53.407-48.017-52.651-48.621-51.984-47.39-51.336-43.864-52.187-40.282-52.131-36.692-52.112-35.879-52.108-34.846-52.292-34.284-52.799-27.048-59.325-21.434-66.782-19.875-76.81-19.367-80.077-21.397-80.854-23.38-82.041M-39.698-90.213C-45.96-98.19-55.054-101.824-63.832-105.942-66.852-106.554-68.49-104.951-68.355-102.244-68.229-99.687-68.512-97.063-67.818-94.536-66.287-87.571-66.157-80.285-62.181-73.891-60.989-71.974-62.475-68.667-59.473-67.248-57.745-65.825-56.44-66.896-55.372-68.121-50.046-74.223-45.243-80.763-39.756-86.735-38.849-87.723-38.026-89.03-39.698-90.213M-60.115-32.91C-59.874-30.927-59.775-28.975-59.689-26.978-59.594-24.781-58.998-22.64-58.969-20.438-58.966-20.238-58.868-20.032-58.745-19.838-58.696-18.336-58.4-16.763-58.073-15.304-58.404-12.971-57.121-11.275-55.818-9.587-52.231-10.12-50.856-13.517-48.375-15.471-41.436-20.934-36.359-28.139-30.384-35.116-35.028-36.043-39.195-34.79-43.079-36.327-46.874-37.187-50.719-36.605-54.539-36.677-54.812-36.682-55.059-36.662-55.284-36.62-56.457-36.784-57.677-37.06-58.826-36.693-60.377-36.199-60.276-34.228-60.115-32.91M36.603-106.858C34.687-106.045 32.761-105.254 30.84-104.452 30.388-103.749 29.643-103.521 28.904-103.277 22.218-100.416 15.063-99.544 7.997-98.296 3.635-97.524 3.404-96.828 5.998-93.193 9.685-88.029 12.731-82.533 14.097-76.268 14.504-72.422 15.759-68.764 16.951-65.109 18.372-60.755 18.291-56.444 16.474-52.35 15.053-49.147 14.62-45.953 14.935-42.568 13.933-34.155 13.932-25.734 14.932-17.306 15.458-7.587 14.313 1.926 12.081 11.394 11.35 14.496 10.137 16.615 7.285 17.856 3.656 19.437 .051 21.071-3.646 22.515-6.851 23.838-9.931 25.515-13.249 26.437-16.823 27.43-20.334 29.413-24.277 28.023-30.19 28.931-34.759 26.719-38.825 22.445-42.832 18.233-46.161 13.331-51.443 10.339-57.35 6.995-57.029-.119-60.186-5.163-61.082-5.594-61.374-6.468-61.737-7.29-62.713-9.772-63.516-12.327-64.859-14.644-68.465-20.437-69.737-27.178-72.377-33.362-74.364-37.871-75.577-42.224-71.299-46.326-69.875-47.691-70.255-49.821-70.709-51.665-73.527-63.09-76.162-74.568-80.437-85.572-80.661-86.332-80.874-87.093-80.519-87.876-82.381-94.16-85.054-100.105-88.042-105.919L-88.028-105.907C-89.918-112.074-93.066-117.999-91.649-124.798-89.549-129.437-86.347-132.012-80.859-131.44-74.183-130.745-67.464-130.434-60.759-130.042-54.312-129.665-48.36-127.722-42.548-124.981-37.728-122.708-33.049-119.991-27.8-118.79-26.33-118.453-23.896-117.605-23.527-120.195-23.191-122.559-25.096-123.33-27.2-123.353-29.519-123.377-31.591-124.144-33.476-125.418-35.56-126.826-37.982-128.351-37.076-131.285-36.156-134.266-33.249-133.104-31.263-132.943-23.704-132.33-16.181-131.295-8.626-130.617 5.504-129.348 19.647-128.218 33.788-127.029 34.211-126.797 34.605-126.455 35.056-126.35 40.535-125.069 43.463-121.759 43.752-116.079 44.009-111.056 40.703-108.6 36.603-106.858" fill="#007f8f"/>
<path transform="matrix(1,0,0,-1,417.2202,263.5908)" d="M0 0C-2.587 .309-3.886 2.06-4.899 4.095-5.995 6.296-6.814 8.57-7.167 10.944-7.624 11.567-8.181 12.102-8.663 12.703-8.842 12.926-8.997 13.165-9.152 13.404-9.192 13.385-9.221 13.356-9.265 13.343-12.003 16.73-15.221 19.63-18.272 22.687-20.203 24.62-20.443 26.475-19.26 29.007-18.244 31.183-16.117 32.802-16.027 35.421-22.065 33.901-27.625 30.469-29.667 25.096-31.12 21.275-31.594 16.961-34.106 13.41-26.245 5.849-17.994-1.358-11.385-10.723-10.891-11.171-10.457-11.69-10.073-12.24-5.586-12.21-1.223-11.276 3.112-10.219 3.574-9.692 3.997-9.125 4.377-8.525 6.588-5.044 4.091-.487 0 0" fill="#13c2ec"/>
<path transform="matrix(1,0,0,-1,399.2339,330.8066)" d="M0 0C.759 1.417-.163 2.25-.993 3.232-5.953 9.1-10.864 15.008-15.786 20.908-16.83 22.16-17.803 23.521-19.774 22.966-13.667 27.529-13.607 28.657-19.084 34.78-20.409 36.26-22.198 37.952-21.117 39.947-19.958 42.086-17.74 40.442-16.027 40.245-13.232 39.924-10.468 39.346-7.69 38.876-1.983 29.347 5.056 20.849 12.545 12.693 13.872 11.25 15.675 10.19 16.317 8.172 14.817 6.346 12.551 6.501 10.562 6.042 6.41 5.085 3.411 2.202 0 0" fill="#17c2ec"/>
<path transform="matrix(1,0,0,-1,371.1133,335.1299)" d="M0 0C-.031-1.948-.019-3.898-.103-5.845-.232-8.818 .968-10.766 3.984-11.406 2.255-12.718 .178-12.804-2.297-13.462-1.479-8.667-.74-4.334 0 0" fill="#3abfdd"/>
<path transform="matrix(1,0,0,-1,362.2725,415.76173)" d="M0 0C-.004-6.491-.004-6.49 6.461-6.389 14.662-6.259 18.751-2.007 18.894 6.538 19.036 15.038 14.386 20.276 6.439 20.569-.002 20.807-.001 20.807 0 14.533 .001 12.049 0 9.564 0 7.08 0 4.721 .001 2.36 0 0M-8.294 7.409C-8.293 13.146-8.285 18.884-8.3 24.62-8.304 26.056-8.383 27.437-6.28 27.338-.316 27.057 5.643 27.521 11.632 26.949 19.96 26.154 27.981 18.525 27.245 5.805 26.576-5.766 19.443-12.985 8.757-13.172 4.144-13.253-.479-13.024-5.083-13.248-7.851-13.383-8.418-12.309-8.347-9.8-8.184-4.067-8.295 1.673-8.294 7.409" fill="#0075a0"/>
<path transform="matrix(1,0,0,-1,293.6147,413.77149)" d="M0 0C.092 5.009-4.081 8.944-9.423 8.887-14.637 8.83-18.524 5.077-18.534 .092-18.542-4.656-14.616-8.359-9.555-8.375-4.187-8.392-.089-4.799 0 0M-18.883 13.237C-12.761 16.083-6.998 16.778-1.215 13.949 4.882 10.967 8.373 3.927 7.038-2.548 5.593-9.554-.641-14.871-7.734-15.172-12.895-15.391-17.982-12.806-23.251-15.086-25.205-15.932-26.285-14.74-26.262-12.342-26.149-.749-26.1 10.848-26.283 22.438-26.333 25.594-24.687 25.424-22.57 25.376-20.558 25.33-18.523 25.769-18.826 22.494-19.096 19.579-18.883 16.619-18.883 13.237" fill="#0075a0"/>
<path transform="matrix(1,0,0,-1,652.4023,413.542)" d="M0 0C-.073 4.931-4.122 8.697-9.306 8.656-14.578 8.615-18.585 4.861-18.562-.016-18.538-5.082-14.515-8.653-8.884-8.606-3.886-8.564 .069-4.732 0 0M.237 12.923C.237 16.405 .416 19.479 .188 22.521-.048 25.678 2.018 25.15 3.812 25.092 5.497 25.038 7.586 25.891 7.549 22.643 7.41 10.819 7.502-1.008 7.474-12.833 7.472-13.735 7.919-15.15 6.503-15.256 4.473-15.406 1.608-16.399 .573-14.728-.712-12.652-1.438-13.832-2.55-14.244-13.628-18.353-25.276-11.7-25.949-.885-26.684 10.938-13.711 19.101-2.212 14.049-1.555 13.76-.907 13.45 .237 12.923" fill="#0075a0"/>
<path transform="matrix(1,0,0,-1,245.0552,422.14753)" d="M0 0C4.91 .037 8.863 3.913 8.818 8.645 8.771 13.442 4.538 17.365-.476 17.257-5.402 17.15-9.383 13.259-9.32 8.611-9.255 3.803-5.098-.038 0 0M9.424-4.05C1.583-8.761-8.146-7.334-13.343-.828-17.947 4.934-17.567 13.549-12.466 19.05-6.949 25.001 2.066 25.837 9.057 20.896 10.354 24.389 13.394 23.4 15.734 22.996 18.134 22.581 16.872 20.086 16.901 18.576 17.042 11.35 17.027 4.117 16.905-3.11 16.883-4.405 18.11-6.829 15.257-6.72 13.041-6.635 9.774-8.399 9.424-4.05" fill="#0075a0"/>
<path transform="matrix(1,0,0,-1,581.4629,413.6553)" d="M0 0C.066 5.167-3.47 8.627-8.966 8.771-14.591 8.917-18.568 5.387-18.606 .214-18.645-4.927-15.043-8.402-9.58-8.498-3.726-8.601-.07-5.358 0 0M-9.379-15.291C-18.729-15.269-25.779-8.519-25.744 .377-25.71 8.987-18.341 15.623-8.879 15.563 .138 15.506 7.497 8.482 7.372 .056 7.242-8.75 .078-15.313-9.379-15.291" fill="#0075a0"/>
<path transform="matrix(1,0,0,-1,378.9307,453.10163)" d="M0 0C-3.365 .082-6.088-3.229-6.158-7.483-6.231-11.998-3.603-15.438-.105-15.404 3.362-15.37 5.745-12.277 5.776-7.77 5.807-3.328 3.394-.081 0 0M-8.609-8.015C-8.681-1.982-5.333 1.866 .027 1.915 4.958 1.959 8.383-1.83 8.442-7.396 8.502-13.152 4.828-17.609-.028-17.672-4.887-17.734-8.542-13.621-8.609-8.015" fill="#008597"/>
<path transform="matrix(1,0,0,-1,524.6133,455.2363)" d="M0 0C-1.393-1.732-1.844-3.13-2.258-4.538-2.498-5.355-2.68-6.188-2.901-7.067-1.267-7.526 .293-7.547 2.147-7.006 1.414-4.611 .707-2.306 0 0M7.471-15.085C5.927-15.658 4.775-16.103 4.318-13.941 3.772-11.357 3.056-9.282-.657-9.358-4.157-9.43-4.374-11.636-4.979-13.761-5.491-15.561-6.251-16.002-8.059-14.979-6.164-9.253-4.208-3.529-2.408 2.242-1.996 3.564-1.406 4.037-.081 4.06 1.298 4.084 1.446 3.181 1.762 2.211 3.636-3.545 5.552-9.286 7.471-15.085" fill="#00889a"/>
</g>
</g>
</svg>
